<svg width="48" height="48" viewBox="0 0 48 48" fill="none" xmlns="http://www.w3.org/2000/svg">
<path d="M44.4638 39.4048C44.378 39.4048 44.2999 39.4048 44.2218 39.4048C38.4477 39.3971 32.671 39.3894 26.8969 39.3816C25.4892 39.3816 24.0814 39.3816 22.6737 39.3739C22.3953 39.3739 22.109 39.3481 21.8384 39.2837C20.8808 39.0519 20.2719 38.4645 20.0664 37.4933C19.9675 37.0219 20.0247 36.5505 20.1106 36.0842C20.2407 35.3706 20.3734 34.657 20.5035 33.9434C20.54 33.7399 20.553 33.5312 20.5972 33.3303C20.6753 32.9851 20.9069 32.797 21.2555 32.7584C21.4429 32.7378 21.6354 32.7275 21.8228 32.73C23.7926 32.7635 25.765 32.7738 27.7348 32.6811C28.6404 32.6399 29.5355 32.5394 30.4072 32.2844C33.4022 31.4111 35.5412 29.5717 36.772 26.7225C37.2039 25.7204 37.4329 24.6642 37.5058 23.577C37.576 22.5492 37.5188 21.529 37.2586 20.5295C37.001 19.5531 36.5534 18.6772 35.8352 17.9507C34.8204 16.9254 33.5506 16.4386 32.135 16.3149C31.3283 16.2453 30.5139 16.2067 29.702 16.2016C26.1527 16.1732 22.6034 16.1629 19.0568 16.1475C18.9995 16.1475 18.9449 16.1552 18.8876 16.1603C18.146 20.0915 17.4096 24.0047 16.6706 27.9359C16.5951 27.9359 16.5301 27.9359 16.4676 27.9359C15.7417 27.9436 15.0131 27.9539 14.2871 27.9642C13.2774 27.9796 12.2704 27.9668 11.2634 27.9024C10.5556 27.856 10.0612 27.5056 9.76719 26.8745C9.58764 26.4881 9.533 26.0759 9.57984 25.6585C9.68912 24.7131 9.7854 23.7651 9.93633 22.8248C10.1913 21.2327 10.475 19.6433 10.7586 18.0564C11.0891 16.2144 11.4299 14.3725 11.7682 12.5331C11.8697 11.9896 12.018 11.4615 12.2704 10.9643C12.6686 10.1863 13.2931 9.68393 14.144 9.45465C14.667 9.31296 15.203 9.28462 15.739 9.27947C17.1078 9.26401 18.4765 9.24341 19.8452 9.24083C23.8993 9.2331 27.9508 9.2331 32.0049 9.23052C32.1792 9.23052 32.3536 9.24083 32.5279 9.25371C32.9104 9.30008 34.8074 9.64013 34.5862 11.6907V11.7191H39.4704C39.4704 11.7191 39.6968 11.0519 39.6057 10.1064C39.6057 10.091 39.6031 10.0807 39.6005 10.0652C39.5849 9.88229 39.5614 9.69938 39.5276 9.51648C39.3038 8.29796 38.7678 7.23144 37.9091 6.33237C36.8214 5.19887 35.5178 4.57545 33.9018 4.5806C29.9518 4.59605 26.0018 4.59348 22.0518 4.5909H18.1981C17.2873 4.5909 16.374 4.5909 15.4632 4.59863C15.3956 4.59863 15.3409 4.59863 15.3097 4.60121C15.2811 4.60121 15.2499 4.60378 15.2212 4.60636C15.1952 4.60636 15.1718 4.61151 15.1458 4.61151C15.1328 4.61151 15.1197 4.61151 15.1067 4.61409C14.0893 4.71198 13.2332 4.97732 13.0407 5.03915C11.1255 5.69864 9.58244 6.84502 8.47914 8.54527C7.73493 9.69165 7.26395 10.9514 6.97511 12.2781C6.80598 13.0561 6.66026 13.8392 6.51714 14.6224C6.24652 16.1011 5.98111 17.5798 5.71569 19.0585C5.49711 20.2899 5.28114 21.5213 5.06776 22.7527C4.92465 23.577 4.78673 24.3988 4.64622 25.2232C4.51871 25.9651 4.54734 26.9183 4.55514 27.1373C4.57336 27.3897 4.60458 27.6061 4.63061 27.7607C4.64362 27.8302 4.65402 27.8998 4.66964 27.9668C4.66964 27.9668 4.66964 27.9693 4.66964 27.9719C4.84398 28.7628 5.16664 29.4944 5.6012 30.1822C6.21009 31.1509 7.04537 31.8464 8.13306 32.238C8.70813 32.4441 9.30401 32.5652 9.9077 32.6373C10.6753 32.7275 11.4482 32.7507 12.221 32.7507C13.3347 32.7507 14.4484 32.7507 15.5595 32.7507C15.6272 32.7507 15.6974 32.7558 15.7677 32.7584C15.7651 32.8202 15.7651 32.8614 15.7599 32.8975C15.5881 34.1675 15.4164 35.4401 15.2446 36.7102C15.1302 37.55 15.1328 38.3898 15.2967 39.2245C15.5153 40.3374 15.9836 41.3292 16.7669 42.1639C17.9274 43.4004 19.3976 43.9981 21.0708 44.1011C21.9659 44.1552 22.8636 44.1372 23.7614 44.1372C29.9414 44.1398 36.124 44.1398 42.3041 44.1372C42.658 44.1372 43.0093 44.114 43.3631 44.1011C43.4074 44.1011 43.449 44.0857 43.4932 44.0779C43.5063 44.0393 43.5193 44.0084 43.5271 43.9775C43.8419 42.5941 44.1542 41.2107 44.4664 39.8273C44.4977 39.6908 44.4977 39.5491 44.4586 39.3997L44.4638 39.4048ZM22.822 20.9339H23.829C25.2212 20.9236 26.6159 20.9082 28.008 20.9107C28.8511 20.9107 29.6968 20.9442 30.5399 20.9829C30.8313 20.9957 31.128 21.0473 31.4064 21.1271C32.109 21.3306 32.4889 21.8175 32.5487 22.544C32.5852 22.9742 32.5487 23.3993 32.4707 23.8192C32.3562 24.4297 32.2521 25.0429 32.1116 25.6482C32.0465 25.929 31.9294 26.2021 31.7967 26.4597C31.3804 27.2712 30.696 27.7246 29.7957 27.856C29.5043 27.8998 29.2102 27.9178 28.9162 27.9307C27.1051 28.008 25.2914 27.9796 23.4804 27.959C22.9183 27.9539 22.3536 27.9487 21.7916 27.941C21.7265 27.941 21.6615 27.941 21.5626 27.941C21.9529 25.7771 22.338 23.6389 22.7257 21.4955L22.8246 20.9339H22.822Z" fill="white"/>
</svg>
